<?xml version="1.0" encoding="UTF-8"?>
<svg version="1.1" xmlns="http://www.w3.org/2000/svg" width="500" height="500">
<path d="M0 0 C1.26323593 -0.00807175 2.52647186 -0.01614349 3.82798767 -0.02445984 C6.49156319 -0.03825329 9.15501695 -0.04928522 11.81860352 -0.05688477 C15.22034736 -0.06798527 18.62144365 -0.10246021 22.0229578 -0.14205647 C25.28607358 -0.17454407 28.54924716 -0.17899954 31.8125 -0.1875 C33.02825211 -0.20500809 34.24400421 -0.22251617 35.49659729 -0.24055481 C41.9202777 -0.2240431 45.98243504 -0.13926971 50.83984375 4.23828125 C51.53851563 4.84929687 52.2371875 5.4603125 52.95703125 6.08984375 C53.53710938 6.67507812 54.1171875 7.2603125 54.71484375 7.86328125 C55.60816406 8.74886719 55.60816406 8.74886719 56.51953125 9.65234375 C57.83984375 11.23828125 57.83984375 11.23828125 57.83984375 13.23828125 C58.65195312 13.563125 58.65195312 13.563125 59.48046875 13.89453125 C62.65629719 15.70328122 65.04712456 18.15551924 67.58984375 20.73828125 C68.09644531 21.23714844 68.60304687 21.73601562 69.125 22.25 C72.83984375 25.98486986 72.83984375 25.98486986 72.83984375 28.23828125 C73.49984375 28.23828125 74.15984375 28.23828125 74.83984375 28.23828125 C74.83984375 28.89828125 74.83984375 29.55828125 74.83984375 30.23828125 C75.4225 30.49351562 76.00515625 30.74875 76.60546875 31.01171875 C79.05372598 32.35569212 80.65727623 33.85638421 82.58984375 35.86328125 C83.51023438 36.81074219 83.51023438 36.81074219 84.44921875 37.77734375 C84.908125 38.25945312 85.36703125 38.7415625 85.83984375 39.23828125 C88.30214372 38.52082769 88.30214372 38.52082769 90.83984375 37.23828125 C91.12142334 36.65836426 91.40300293 36.07844727 91.69311523 35.48095703 C93.24504079 32.44583075 95.38192094 30.49081666 97.8125 28.10546875 C98.29561142 27.6275589 98.77872284 27.14964905 99.276474 26.65725708 C100.81373416 25.13774511 102.35753701 23.62511735 103.90234375 22.11328125 C105.44981852 20.59343566 106.99580301 19.07214706 108.53892517 17.54788208 C109.93555176 16.16909383 111.33692698 14.7951206 112.73852539 13.42138672 C114.8724392 11.42147673 114.8724392 11.42147673 115.83984375 9.23828125 C116.49984375 9.23828125 117.15984375 9.23828125 117.83984375 9.23828125 C118.16984375 8.24828125 118.49984375 7.25828125 118.83984375 6.23828125 C119.49984375 6.23828125 120.15984375 6.23828125 120.83984375 6.23828125 C120.83984375 5.57828125 120.83984375 4.91828125 120.83984375 4.23828125 C121.49984375 4.23828125 122.15984375 4.23828125 122.83984375 4.23828125 C122.83984375 3.57828125 122.83984375 2.91828125 122.83984375 2.23828125 C128.33879034 -0.06430638 133.32661798 -0.03645632 139.1796875 0.0078125 C140.17883682 0.00827072 141.17798615 0.00872894 142.20741272 0.00920105 C144.32131132 0.01221627 146.43520783 0.02008069 148.54907227 0.0324707 C151.73527187 0.05054262 154.92117671 0.05298131 158.10742188 0.05273438 C169.05821138 0.07233584 179.92675426 0.28755696 190.83984375 1.23828125 C189.10983197 4.95503837 186.99321173 7.25857774 184.02734375 10.11328125 C181.13826129 12.93149156 178.34806107 15.69976391 175.83984375 18.86328125 C175.17984375 19.64703125 174.51984375 20.43078125 173.83984375 21.23828125 C173.17984375 21.23828125 172.51984375 21.23828125 171.83984375 21.23828125 C171.83984375 21.89828125 171.83984375 22.55828125 171.83984375 23.23828125 C169.85723949 24.92560402 167.85660955 26.59194182 165.83984375 28.23828125 C165.50984375 28.89828125 165.17984375 29.55828125 164.83984375 30.23828125 C164.17984375 30.23828125 163.51984375 30.23828125 162.83984375 30.23828125 C162.83984375 30.89828125 162.83984375 31.55828125 162.83984375 32.23828125 C162.17984375 32.23828125 161.51984375 32.23828125 160.83984375 32.23828125 C160.83984375 32.89828125 160.83984375 33.55828125 160.83984375 34.23828125 C158.96484375 36.36328125 158.96484375 36.36328125 156.83984375 38.23828125 C156.17984375 38.23828125 155.51984375 38.23828125 154.83984375 38.23828125 C154.57171875 38.87765625 154.30359375 39.51703125 154.02734375 40.17578125 C152.83984375 42.23828125 152.83984375 42.23828125 149.83984375 43.23828125 C149.83984375 43.89828125 149.83984375 44.55828125 149.83984375 45.23828125 C147.96484375 47.36328125 147.96484375 47.36328125 145.83984375 49.23828125 C145.17984375 49.23828125 144.51984375 49.23828125 143.83984375 49.23828125 C143.83984375 49.89828125 143.83984375 50.55828125 143.83984375 51.23828125 C143.17984375 51.23828125 142.51984375 51.23828125 141.83984375 51.23828125 C141.83984375 51.89828125 141.83984375 52.55828125 141.83984375 53.23828125 C140.46484375 54.86328125 140.46484375 54.86328125 138.83984375 56.23828125 C138.17984375 56.23828125 137.51984375 56.23828125 136.83984375 56.23828125 C136.17984375 57.55828125 135.51984375 58.87828125 134.83984375 60.23828125 C134.17984375 60.23828125 133.51984375 60.23828125 132.83984375 60.23828125 C132.83984375 60.89828125 132.83984375 61.55828125 132.83984375 62.23828125 C132.17984375 62.23828125 131.51984375 62.23828125 130.83984375 62.23828125 C130.57171875 62.83640625 130.30359375 63.43453125 130.02734375 64.05078125 C128.85490908 66.21052933 127.64615093 67.59618381 125.83984375 69.23828125 C127.42077891 73.11829251 130.06257881 75.73481252 132.99609375 78.625 C133.49902954 79.12747757 134.00196533 79.62995514 134.5201416 80.1476593 C135.5802346 81.20474044 136.64274779 82.25939938 137.70751953 83.31176758 C139.33947452 84.92541616 140.96323528 86.54697416 142.5859375 88.16992188 C143.61801804 89.1970886 144.65055456 90.22379741 145.68359375 91.25 C146.17009399 91.73538742 146.65659424 92.22077484 147.15783691 92.72087097 C149.75750486 95.30183161 149.75750486 95.30183161 152.83984375 97.23828125 C153.05640625 96.696875 153.27296875 96.15546875 153.49609375 95.59765625 C155.30484372 92.42182781 157.75708174 90.03100044 160.33984375 87.48828125 C160.83871094 86.98167969 161.33757812 86.47507812 161.8515625 85.953125 C165.58643236 82.23828125 165.58643236 82.23828125 167.83984375 82.23828125 C167.83984375 81.57828125 167.83984375 80.91828125 167.83984375 80.23828125 C168.49984375 80.23828125 169.15984375 80.23828125 169.83984375 80.23828125 C170.195625 79.39571777 170.195625 79.39571777 170.55859375 78.53613281 C172.13303732 75.71245467 174.0566892 73.76213283 176.33984375 71.47265625 C177.22671875 70.58320313 178.11359375 69.69375 179.02734375 68.77734375 C179.95546875 67.85695313 180.88359375 66.9365625 181.83984375 65.98828125 C182.76796875 65.05242187 183.69609375 64.1165625 184.65234375 63.15234375 C185.53921875 62.26804688 186.42609375 61.38375 187.33984375 60.47265625 C188.15453125 59.66022461 188.96921875 58.84779297 189.80859375 58.01074219 C191.83984375 56.23828125 191.83984375 56.23828125 193.83984375 56.23828125 C193.83984375 55.57828125 193.83984375 54.91828125 193.83984375 54.23828125 C215.61984375 54.23828125 237.39984375 54.23828125 259.83984375 54.23828125 C257.97656991 58.89646586 257.14304298 60.08762702 253.41015625 63 C249.6052613 66.00037736 246.48110973 69.63710171 243.33984375 73.30078125 C240.71696818 76.33241665 238.03388336 78.80072471 234.83984375 81.23828125 C233.16197298 82.89366799 231.4967783 84.56193897 229.83984375 86.23828125 C229.00324219 87.06328125 228.16664063 87.88828125 227.3046875 88.73828125 C226.47066406 89.56328125 225.63664062 90.38828125 224.77734375 91.23828125 C223.94074219 92.06328125 223.10414063 92.88828125 222.2421875 93.73828125 C219.94032653 96.1337138 217.91113866 98.64477427 215.83984375 101.23828125 C215.03546875 101.87765625 214.23109375 102.51703125 213.40234375 103.17578125 C210.98097965 105.12468406 209.21669967 107.18800245 207.28515625 109.60546875 C205.6216744 111.48475365 203.81622358 113.05298581 201.90234375 114.67578125 C198.64387653 117.4442534 195.92942942 120.36528752 193.2265625 123.66796875 C191.32949452 125.81619785 189.0784147 127.46059255 186.83984375 129.23828125 C186.61113371 131.49963315 186.61113371 131.49963315 188.9140625 133.4375 C189.88775663 134.3727272 190.86317485 135.30616107 191.83984375 136.23828125 C192.95318352 137.34628925 194.06374606 138.4570931 195.171875 139.5703125 C195.74228516 140.14072266 196.31269531 140.71113281 196.90039062 141.29882812 C199.546875 143.9453125 202.19335938 146.59179688 204.83984375 149.23828125 C208.12083784 147.83724674 209.9139931 146.24481809 212.15234375 143.48828125 C215.01011584 140.09351959 218.00042916 137.2394257 221.45703125 134.46484375 C222.98087484 133.26652586 222.98087484 133.26652586 223.83984375 131.23828125 C224.49984375 131.23828125 225.15984375 131.23828125 225.83984375 131.23828125 C225.83984375 130.57828125 225.83984375 129.91828125 225.83984375 129.23828125 C227.21919085 128.05140119 228.60268378 126.86718345 230.0390625 125.75 C235.16503829 121.44684896 239.53993532 116.32084843 243.99804688 111.34765625 C247.62466518 107.34587054 247.62466518 107.34587054 249.83984375 106.23828125 C251.71903923 106.14717344 253.60151167 106.12075288 255.48291016 106.12475586 C256.66398346 106.12483139 257.84505676 106.12490692 259.06192017 106.12498474 C260.34215057 106.13014603 261.62238098 106.13530731 262.94140625 106.140625 C264.90151138 106.14274742 264.90151138 106.14274742 266.9012146 106.14491272 C270.37660633 106.14873231 273.85195632 106.15855783 277.32733154 106.1696167 C280.8731632 106.17984282 284.4190016 106.18441292 287.96484375 106.18945312 C294.92319424 106.20018059 301.88151699 106.21725033 308.83984375 106.23828125 C307.81456562 110.75392985 305.99985447 112.84705023 302.83984375 116.23828125 C302.17984375 116.23828125 301.51984375 116.23828125 300.83984375 116.23828125 C300.83984375 116.89828125 300.83984375 117.55828125 300.83984375 118.23828125 C300.17984375 118.23828125 299.51984375 118.23828125 298.83984375 118.23828125 C298.83984375 118.89828125 298.83984375 119.55828125 298.83984375 120.23828125 C298.17984375 120.23828125 297.51984375 120.23828125 296.83984375 120.23828125 C296.50984375 121.22828125 296.17984375 122.21828125 295.83984375 123.23828125 C295.17984375 123.23828125 294.51984375 123.23828125 293.83984375 123.23828125 C293.50984375 124.22828125 293.17984375 125.21828125 292.83984375 126.23828125 C292.17984375 126.23828125 291.51984375 126.23828125 290.83984375 126.23828125 C290.50984375 127.22828125 290.17984375 128.21828125 289.83984375 129.23828125 C289.17984375 129.23828125 288.51984375 129.23828125 287.83984375 129.23828125 C287.83984375 129.89828125 287.83984375 130.55828125 287.83984375 131.23828125 C287.17984375 131.23828125 286.51984375 131.23828125 285.83984375 131.23828125 C285.83984375 131.89828125 285.83984375 132.55828125 285.83984375 133.23828125 C285.17984375 133.23828125 284.51984375 133.23828125 283.83984375 133.23828125 C283.83984375 133.89828125 283.83984375 134.55828125 283.83984375 135.23828125 C283.17984375 135.23828125 282.51984375 135.23828125 281.83984375 135.23828125 C281.61296875 135.79515625 281.38609375 136.35203125 281.15234375 136.92578125 C279.46434339 139.89987713 277.37307858 141.9583699 274.83984375 144.23828125 C274.17984375 144.23828125 273.51984375 144.23828125 272.83984375 144.23828125 C272.60063705 144.80280502 272.36143036 145.3673288 272.11497498 145.94895935 C270.56519409 148.73137676 268.6971717 150.62048968 266.43774414 152.86743164 C265.52662369 153.77840103 264.61550323 154.68937042 263.67677307 155.62794495 C262.68045311 156.61404796 261.68402615 157.60004287 260.6875 158.5859375 C259.66577711 159.60392674 258.64449749 160.62236105 257.62364197 161.64122009 C254.93800119 164.3192367 252.24641277 166.99119678 249.55352783 169.66192627 C246.81789885 172.37712879 244.0878865 175.09796526 241.35742188 177.81835938 C236.55389053 182.60276133 231.74547121 187.38219432 226.93348694 192.15809631 C225.68000946 193.40351625 224.44920303 194.67342678 223.26879883 195.98831177 C220.75086182 198.19086136 217.44138099 197.81209785 214.2421875 197.8828125 C213.49328751 197.90228439 212.74438751 197.92175629 211.97279358 197.94181824 C210.3850937 197.97453253 208.79718897 197.99833675 207.20922852 198.01391602 C204.80681305 198.05033452 202.4138019 198.15609263 200.01367188 198.26367188 C188.08256127 198.54464719 188.08256127 198.54464719 183.48876953 195.02490234 C180.95955561 192.54829678 178.79136886 190.1892859 176.83984375 187.23828125 C176.83984375 186.57828125 176.83984375 185.91828125 176.83984375 185.23828125 C175.99728027 184.8825 175.99728027 184.8825 175.13769531 184.51953125 C172.31401717 182.94508768 170.36369533 181.0214358 168.07421875 178.73828125 C166.74003906 177.40796875 166.74003906 177.40796875 165.37890625 176.05078125 C164.45851563 175.12265625 163.538125 174.19453125 162.58984375 173.23828125 C161.65398437 172.31015625 160.718125 171.38203125 159.75390625 170.42578125 C158.86960937 169.53890625 157.9853125 168.65203125 157.07421875 167.73828125 C156.26178711 166.92359375 155.44935547 166.10890625 154.61230469 165.26953125 C152.83984375 163.23828125 152.83984375 163.23828125 152.83984375 161.23828125 C150.47360694 160.95614538 150.47360694 160.95614538 147.83984375 161.23828125 C146.07456051 162.61607745 146.07456051 162.61607745 144.65234375 164.61328125 C141.76268786 168.16488474 138.74781453 171.48068689 135.52734375 174.73828125 C134.68558594 175.59421875 133.84382813 176.45015625 132.9765625 177.33203125 C130.83984375 179.23828125 130.83984375 179.23828125 128.83984375 179.23828125 C128.55705063 179.82787628 128.27425751 180.41747131 127.9828949 181.02493286 C124.53763527 187.69616526 119.49183173 193.6435225 112.83984375 197.23828125 C105.07011497 199.28850285 96.95132615 198.83936193 88.98706055 198.51416016 C85.25315349 198.3622974 81.52768016 198.30916227 77.79101562 198.2734375 C75.41004274 198.228291 73.02916537 198.17770555 70.6484375 198.12109375 C69.53697861 198.09782013 68.42551971 198.07454651 67.28038025 198.05056763 C62.64083921 197.84946934 59.64181965 197.71633459 55.60180664 195.30810547 C53.83984375 193.23828125 53.83984375 193.23828125 53.83984375 191.23828125 C53.17984375 191.23828125 52.51984375 191.23828125 51.83984375 191.23828125 C50.32421875 189.6640625 50.32421875 189.6640625 48.58984375 187.55078125 C46.42087201 184.99193236 44.43260202 182.89891314 41.83984375 180.73828125 C38.6852428 178.10944712 36.16757701 175.27983451 33.5078125 172.16796875 C30.5400189 168.73450262 27.61741402 165.75666143 23.83984375 163.23828125 C23.83984375 162.57828125 23.83984375 161.91828125 23.83984375 161.23828125 C22.51984375 161.23828125 21.19984375 161.23828125 19.83984375 161.23828125 C18.59057582 162.65192654 17.34971925 164.07701623 16.20703125 165.578125 C14.79526225 167.29241593 13.32012016 168.60157647 11.58984375 169.98828125 C8.81624437 171.94460009 8.81624437 171.94460009 7.83984375 174.23828125 C7.17984375 174.23828125 6.51984375 174.23828125 5.83984375 174.23828125 C5.83984375 174.89828125 5.83984375 175.55828125 5.83984375 176.23828125 C5.17984375 176.23828125 4.51984375 176.23828125 3.83984375 176.23828125 C3.83984375 176.89828125 3.83984375 177.55828125 3.83984375 178.23828125 C2.125 179.89453125 2.125 179.89453125 -0.09765625 181.73828125 C-3.08060804 184.12755124 -3.08060804 184.12755124 -5.16015625 187.23828125 C-5.82015625 187.23828125 -6.48015625 187.23828125 -7.16015625 187.23828125 C-7.16015625 187.89828125 -7.16015625 188.55828125 -7.16015625 189.23828125 C-7.82015625 189.23828125 -8.48015625 189.23828125 -9.16015625 189.23828125 C-9.16015625 189.89828125 -9.16015625 190.55828125 -9.16015625 191.23828125 C-12.44986997 195.38709219 -14.47776913 196.99703329 -19.78320312 197.7578125 C-23.39886301 197.94014379 -27.00470149 197.90069187 -30.62255859 197.80078125 C-32.9183005 197.73805874 -35.21129569 197.71879067 -37.5078125 197.70703125 C-38.97008563 197.68870331 -40.43233088 197.66795559 -41.89453125 197.64453125 C-42.57892273 197.63603149 -43.26331421 197.62753174 -43.96844482 197.61877441 C-47.56314196 197.51048741 -49.08359249 197.28932376 -52.16015625 195.23828125 C-52.16015625 194.57828125 -52.16015625 193.91828125 -52.16015625 193.23828125 C-54.14015625 192.24828125 -54.14015625 192.24828125 -56.16015625 191.23828125 C-56.16015625 190.57828125 -56.16015625 189.91828125 -56.16015625 189.23828125 C-56.82015625 189.23828125 -57.48015625 189.23828125 -58.16015625 189.23828125 C-58.16015625 188.57828125 -58.16015625 187.91828125 -58.16015625 187.23828125 C-58.82015625 187.23828125 -59.48015625 187.23828125 -60.16015625 187.23828125 C-60.16015625 186.57828125 -60.16015625 185.91828125 -60.16015625 185.23828125 C-60.77890625 184.99078125 -61.39765625 184.74328125 -62.03515625 184.48828125 C-64.54725921 183.01057363 -64.92122969 181.79872948 -66.16015625 179.23828125 C-67.15015625 178.90828125 -68.14015625 178.57828125 -69.16015625 178.23828125 C-69.16015625 177.57828125 -69.16015625 176.91828125 -69.16015625 176.23828125 C-69.82015625 176.23828125 -70.48015625 176.23828125 -71.16015625 176.23828125 C-71.16015625 175.57828125 -71.16015625 174.91828125 -71.16015625 174.23828125 C-71.82015625 174.23828125 -72.48015625 174.23828125 -73.16015625 174.23828125 C-74.87124314 172.61725157 -76.53268931 170.94324662 -78.16015625 169.23828125 C-78.92328125 168.51640625 -79.68640625 167.79453125 -80.47265625 167.05078125 C-82.16015625 165.23828125 -82.16015625 165.23828125 -82.16015625 163.23828125 C-82.82015625 163.23828125 -83.48015625 163.23828125 -84.16015625 163.23828125 C-84.16015625 162.57828125 -84.16015625 161.91828125 -84.16015625 161.23828125 C-85.08828125 160.86703125 -85.08828125 160.86703125 -86.03515625 160.48828125 C-88.56374252 159.00087756 -88.87854629 157.80150116 -90.16015625 155.23828125 C-91.48536128 154.55559987 -92.81827807 153.88757715 -94.16015625 153.23828125 C-94.49015625 152.24828125 -94.82015625 151.25828125 -95.16015625 150.23828125 C-95.79953125 149.92890625 -96.43890625 149.61953125 -97.09765625 149.30078125 C-99.6148454 148.00404745 -100.12902573 146.81610755 -101.16015625 144.23828125 C-101.82015625 144.23828125 -102.48015625 144.23828125 -103.16015625 144.23828125 C-103.16015625 143.57828125 -103.16015625 142.91828125 -103.16015625 142.23828125 C-103.79953125 141.97015625 -104.43890625 141.70203125 -105.09765625 141.42578125 C-107.16015625 140.23828125 -107.16015625 140.23828125 -108.16015625 137.23828125 C-108.82015625 137.23828125 -109.48015625 137.23828125 -110.16015625 137.23828125 C-112.28515625 135.36328125 -112.28515625 135.36328125 -114.16015625 133.23828125 C-114.16015625 132.57828125 -114.16015625 131.91828125 -114.16015625 131.23828125 C-114.82015625 131.23828125 -115.48015625 131.23828125 -116.16015625 131.23828125 C-116.16015625 130.57828125 -116.16015625 129.91828125 -116.16015625 129.23828125 C-117.15015625 128.90828125 -118.14015625 128.57828125 -119.16015625 128.23828125 C-119.16015625 127.57828125 -119.16015625 126.91828125 -119.16015625 126.23828125 C-119.77890625 125.99078125 -120.39765625 125.74328125 -121.03515625 125.48828125 C-123.51084312 124.03199486 -124.11140627 122.86015619 -125.16015625 120.23828125 C-125.82015625 120.23828125 -126.48015625 120.23828125 -127.16015625 120.23828125 C-127.16015625 119.57828125 -127.16015625 118.91828125 -127.16015625 118.23828125 C-127.82015625 118.23828125 -128.48015625 118.23828125 -129.16015625 118.23828125 C-129.16015625 117.57828125 -129.16015625 116.91828125 -129.16015625 116.23828125 C-129.99546875 115.95984375 -129.99546875 115.95984375 -130.84765625 115.67578125 C-134.22769817 113.57467411 -136.01156006 110.53162131 -138.16015625 107.23828125 C-133.34242596 102.42055096 -116.31557807 104.64933409 -109.34765625 104.42578125 C-108.67225674 104.40349709 -107.99685722 104.38121292 -107.30099106 104.35825348 C-92.13502046 103.91556433 -77.87043838 103.64133986 -65.9377594 114.25010681 C-59.88506762 120.20560562 -54.44566163 126.90176241 -50.16015625 134.23828125 C-50.16015625 134.89828125 -50.16015625 135.55828125 -50.16015625 136.23828125 C-49.50015625 136.23828125 -48.84015625 136.23828125 -48.16015625 136.23828125 C-48.16015625 136.89828125 -48.16015625 137.55828125 -48.16015625 138.23828125 C-47.598125 138.47289062 -47.03609375 138.7075 -46.45703125 138.94921875 C-43.61379734 140.54491125 -41.67917498 142.52752668 -39.41015625 144.86328125 C-38.6109375 145.68054688 -37.81171875 146.4978125 -36.98828125 147.33984375 C-36.385 147.96632813 -35.78171875 148.5928125 -35.16015625 149.23828125 C-31.90149265 147.81182345 -29.75767085 146.07123963 -27.26953125 143.54296875 C-26.56054688 142.82753906 -25.8515625 142.11210937 -25.12109375 141.375 C-24.39148438 140.62863281 -23.661875 139.88226563 -22.91015625 139.11328125 C-22.16507812 138.35917969 -21.42 137.60507812 -20.65234375 136.828125 C-18.81702205 134.96927353 -16.98653715 133.1059112 -15.16015625 131.23828125 C-16.73042329 127.45074662 -19.10427001 125.05020504 -21.9921875 122.17578125 C-22.46581223 121.70261475 -22.93943695 121.22944824 -23.42741394 120.74194336 C-24.4278407 119.74452916 -25.43068829 118.74953794 -26.43579102 117.75683594 C-27.96230236 116.24851178 -29.48072787 114.73240895 -30.99804688 113.21484375 C-35.23883175 108.99541526 -39.48251637 104.97522504 -44.16015625 101.23828125 C-45.51402561 99.58825297 -46.84693767 97.92084255 -48.16015625 96.23828125 C-51.97995591 92.20020733 -56.14314061 88.61168937 -60.3671875 85.0078125 C-61.25470703 84.13189453 -61.25470703 84.13189453 -62.16015625 83.23828125 C-62.16015625 82.57828125 -62.16015625 81.91828125 -62.16015625 81.23828125 C-62.70833008 81.01462891 -63.25650391 80.79097656 -63.82128906 80.56054688 C-66.86261344 78.84115096 -69.14249246 76.54204126 -71.58203125 74.08203125 C-72.08688049 73.57909546 -72.59172974 73.07615967 -73.11187744 72.5579834 C-74.17323622 71.49798139 -75.23209044 70.43546637 -76.28857422 69.37060547 C-77.91154749 67.73688079 -79.54496693 66.11414831 -81.1796875 64.4921875 C-82.21027771 63.46027649 -83.24024777 62.42774566 -84.26953125 61.39453125 C-84.76007996 60.90803101 -85.25062866 60.42153076 -85.75604248 59.92028809 C-89.16015625 56.46822474 -89.16015625 56.46822474 -89.16015625 54.23828125 C-80.52817896 54.12225864 -71.89647145 54.03350155 -63.26388359 53.97922039 C-59.25506864 53.95316347 -55.24678845 53.91783853 -51.23828125 53.86108398 C-47.36733903 53.80662224 -43.49691005 53.77683134 -39.62561417 53.76389503 C-38.15121509 53.75468031 -36.67684306 53.73668545 -35.20266342 53.70963097 C-22.19376322 53.48045661 -22.19376322 53.48045661 -18.32226562 56.64648438 C-17.60876953 57.50177734 -16.89527344 58.35707031 -16.16015625 59.23828125 C-15.55429688 59.88410156 -14.9484375 60.52992188 -14.32421875 61.1953125 C-13.81632812 61.80761719 -13.3084375 62.41992188 -12.78515625 63.05078125 C-9.12433211 67.34334053 -5.18102989 71.28570271 -1.16015625 75.23828125 C-0.31453125 76.10453125 0.53109375 76.97078125 1.40234375 77.86328125 C3.29406206 79.70649397 5.1852325 81.37218924 7.21484375 83.05078125 C10.57811761 85.87915534 13.36837371 89.02339984 16.1640625 92.40625 C17.90542835 94.30998096 19.73401515 95.75640187 21.83984375 97.23828125 C21.83984375 96.57828125 21.83984375 95.91828125 21.83984375 95.23828125 C22.49984375 95.23828125 23.15984375 95.23828125 23.83984375 95.23828125 C23.83984375 94.57828125 23.83984375 93.91828125 23.83984375 93.23828125 C24.49984375 93.23828125 25.15984375 93.23828125 25.83984375 93.23828125 C25.83984375 92.57828125 25.83984375 91.91828125 25.83984375 91.23828125 C26.49984375 91.23828125 27.15984375 91.23828125 27.83984375 91.23828125 C28.10796875 90.59890625 28.37609375 89.95953125 28.65234375 89.30078125 C29.83984375 87.23828125 29.83984375 87.23828125 32.83984375 86.23828125 C32.83984375 85.57828125 32.83984375 84.91828125 32.83984375 84.23828125 C33.49984375 84.23828125 34.15984375 84.23828125 34.83984375 84.23828125 C34.83984375 83.57828125 34.83984375 82.91828125 34.83984375 82.23828125 C35.49984375 82.23828125 36.15984375 82.23828125 36.83984375 82.23828125 C37.08734375 81.61953125 37.33484375 81.00078125 37.58984375 80.36328125 C39.07724744 77.83469498 40.27662384 77.51989121 42.83984375 76.23828125 C44.83510369 73.24539134 44.83984375 72.00742529 44.83984375 68.23828125 C44.83984375 67.57828125 44.83984375 66.91828125 44.83984375 66.23828125 C44.17984375 66.23828125 43.51984375 66.23828125 42.83984375 66.23828125 C42.83984375 65.57828125 42.83984375 64.91828125 42.83984375 64.23828125 C42.17984375 64.23828125 41.51984375 64.23828125 40.83984375 64.23828125 C40.83984375 63.57828125 40.83984375 62.91828125 40.83984375 62.23828125 C40.17984375 62.23828125 39.51984375 62.23828125 38.83984375 62.23828125 C38.83984375 61.57828125 38.83984375 60.91828125 38.83984375 60.23828125 C37.51984375 59.57828125 36.19984375 58.91828125 34.83984375 58.23828125 C34.83984375 57.57828125 34.83984375 56.91828125 34.83984375 56.23828125 C34.17984375 56.23828125 33.51984375 56.23828125 32.83984375 56.23828125 C31.21484375 54.86328125 31.21484375 54.86328125 29.83984375 53.23828125 C29.83984375 52.57828125 29.83984375 51.91828125 29.83984375 51.23828125 C29.17984375 51.23828125 28.51984375 51.23828125 27.83984375 51.23828125 C27.83984375 50.57828125 27.83984375 49.91828125 27.83984375 49.23828125 C27.17984375 49.23828125 26.51984375 49.23828125 25.83984375 49.23828125 C25.83984375 48.57828125 25.83984375 47.91828125 25.83984375 47.23828125 C25.17984375 47.23828125 24.51984375 47.23828125 23.83984375 47.23828125 C23.83984375 46.57828125 23.83984375 45.91828125 23.83984375 45.23828125 C23.17984375 45.23828125 22.51984375 45.23828125 21.83984375 45.23828125 C21.83984375 44.57828125 21.83984375 43.91828125 21.83984375 43.23828125 C21.20046875 42.97015625 20.56109375 42.70203125 19.90234375 42.42578125 C17.83984375 41.23828125 17.83984375 41.23828125 16.83984375 38.23828125 C16.17984375 38.23828125 15.51984375 38.23828125 14.83984375 38.23828125 C14.83984375 37.57828125 14.83984375 36.91828125 14.83984375 36.23828125 C13.51984375 35.57828125 12.19984375 34.91828125 10.83984375 34.23828125 C10.83984375 33.57828125 10.83984375 32.91828125 10.83984375 32.23828125 C10.17984375 32.23828125 9.51984375 32.23828125 8.83984375 32.23828125 C8.83984375 31.57828125 8.83984375 30.91828125 8.83984375 30.23828125 C8.17984375 30.23828125 7.51984375 30.23828125 6.83984375 30.23828125 C5.21484375 28.86328125 5.21484375 28.86328125 3.83984375 27.23828125 C3.83984375 26.57828125 3.83984375 25.91828125 3.83984375 25.23828125 C1.85984375 24.24828125 1.85984375 24.24828125 -0.16015625 23.23828125 C-0.16015625 22.57828125 -0.16015625 21.91828125 -0.16015625 21.23828125 C-0.82015625 21.23828125 -1.48015625 21.23828125 -2.16015625 21.23828125 C-2.16015625 20.57828125 -2.16015625 19.91828125 -2.16015625 19.23828125 C-2.82015625 19.23828125 -3.48015625 19.23828125 -4.16015625 19.23828125 C-4.16015625 18.57828125 -4.16015625 17.91828125 -4.16015625 17.23828125 C-4.82015625 17.23828125 -5.48015625 17.23828125 -6.16015625 17.23828125 C-6.16015625 16.57828125 -6.16015625 15.91828125 -6.16015625 15.23828125 C-6.71703125 15.01140625 -7.27390625 14.78453125 -7.84765625 14.55078125 C-10.82175213 12.86278089 -12.8802449 10.77151608 -15.16015625 8.23828125 C-15.16015625 7.57828125 -15.16015625 6.91828125 -15.16015625 6.23828125 C-15.82015625 6.23828125 -16.48015625 6.23828125 -17.16015625 6.23828125 C-17.16015625 5.57828125 -17.16015625 4.91828125 -17.16015625 4.23828125 C-18.15015625 3.90828125 -19.14015625 3.57828125 -20.16015625 3.23828125 C-20.16015625 2.57828125 -20.16015625 1.91828125 -20.16015625 1.23828125 C-13.4572485 0.02384907 -6.79791851 0.04137317 0 0 Z M84.83984375 95.23828125 C83.46421521 96.52793301 82.13217982 97.86517418 80.83984375 99.23828125 C80.83984375 99.89828125 80.83984375 100.55828125 80.83984375 101.23828125 C80.22109375 101.48578125 79.60234375 101.73328125 78.96484375 101.98828125 C76.48915688 103.44456764 75.88859373 104.61640631 74.83984375 107.23828125 C74.17984375 107.23828125 73.51984375 107.23828125 72.83984375 107.23828125 C72.83984375 107.89828125 72.83984375 108.55828125 72.83984375 109.23828125 C71.84984375 109.56828125 70.85984375 109.89828125 69.83984375 110.23828125 C69.83984375 110.89828125 69.83984375 111.55828125 69.83984375 112.23828125 C69.22109375 112.48578125 68.60234375 112.73328125 67.96484375 112.98828125 C65.48915688 114.44456764 64.88859373 115.61640631 63.83984375 118.23828125 C63.17984375 118.23828125 62.51984375 118.23828125 61.83984375 118.23828125 C61.83984375 118.89828125 61.83984375 119.55828125 61.83984375 120.23828125 C61.17984375 120.23828125 60.51984375 120.23828125 59.83984375 120.23828125 C59.83984375 120.89828125 59.83984375 121.55828125 59.83984375 122.23828125 C58.84984375 122.56828125 57.85984375 122.89828125 56.83984375 123.23828125 C56.83984375 123.89828125 56.83984375 124.55828125 56.83984375 125.23828125 C55.84984375 125.56828125 54.85984375 125.89828125 53.83984375 126.23828125 C55.43076427 130.37467461 58.44459293 133.47041373 61.83984375 136.23828125 C62.49984375 136.23828125 63.15984375 136.23828125 63.83984375 136.23828125 C64.06671875 136.79515625 64.29359375 137.35203125 64.52734375 137.92578125 C66.21534411 140.89987713 68.30660892 142.9583699 70.83984375 145.23828125 C71.49984375 145.23828125 72.15984375 145.23828125 72.83984375 145.23828125 C73.08734375 145.81578125 73.33484375 146.39328125 73.58984375 146.98828125 C75.02284363 149.56768104 76.62409051 151.29949717 78.83984375 153.23828125 C79.49984375 153.23828125 80.15984375 153.23828125 80.83984375 153.23828125 C81.08734375 153.85703125 81.33484375 154.47578125 81.58984375 155.11328125 C83.04613014 157.58896812 84.21796881 158.18953127 86.83984375 159.23828125 C88.21547229 157.94862949 89.54750768 156.61138832 90.83984375 155.23828125 C90.83984375 154.57828125 90.83984375 153.91828125 90.83984375 153.23828125 C92.15984375 152.57828125 93.47984375 151.91828125 94.83984375 151.23828125 C94.83984375 150.57828125 94.83984375 149.91828125 94.83984375 149.23828125 C95.49984375 149.23828125 96.15984375 149.23828125 96.83984375 149.23828125 C96.83984375 148.57828125 96.83984375 147.91828125 96.83984375 147.23828125 C97.49984375 147.23828125 98.15984375 147.23828125 98.83984375 147.23828125 C98.83984375 146.57828125 98.83984375 145.91828125 98.83984375 145.23828125 C99.82984375 144.90828125 100.81984375 144.57828125 101.83984375 144.23828125 C101.83984375 143.57828125 101.83984375 142.91828125 101.83984375 142.23828125 C102.82984375 141.90828125 103.81984375 141.57828125 104.83984375 141.23828125 C104.83984375 140.57828125 104.83984375 139.91828125 104.83984375 139.23828125 C105.82984375 138.90828125 106.81984375 138.57828125 107.83984375 138.23828125 C107.83984375 137.57828125 107.83984375 136.91828125 107.83984375 136.23828125 C108.49984375 136.23828125 109.15984375 136.23828125 109.83984375 136.23828125 C109.83984375 135.57828125 109.83984375 134.91828125 109.83984375 134.23828125 C110.49984375 134.23828125 111.15984375 134.23828125 111.83984375 134.23828125 C111.83984375 133.57828125 111.83984375 132.91828125 111.83984375 132.23828125 C112.49984375 132.23828125 113.15984375 132.23828125 113.83984375 132.23828125 C115.47660632 130.27825315 115.47660632 130.27825315 116.83984375 128.23828125 C115.27372182 124.39416378 112.81890254 122.07877916 109.83984375 119.23828125 C107.05858789 116.52833964 104.44001742 113.78805982 101.96484375 110.80078125 C99.38407686 107.74234028 96.59352877 105.19942508 93.51171875 102.65625 C91.15140304 100.65439345 89.0270849 98.4255224 86.83984375 96.23828125 C86.17984375 95.90828125 85.51984375 95.57828125 84.83984375 95.23828125 Z " fill="#05090B" transform="translate(164.16015625,150.76171875)"/>
<path d="M0 0 C22.11 0 44.22 0 67 0 C67 0.33 67 0.66 67 1 C26.17297641 2.19388403 26.17297641 2.19388403 7 2 C7.33 2.66 7.66 3.32 8 4 C8.33 4.66 8.66 5.32 9 6 C9.99 5.67 10.98 5.34 12 5 C12.33 5.99 12.66 6.98 13 8 C11.5625 10.1875 11.5625 10.1875 10 12 C8.32737283 10.38113585 6.66204463 8.7547271 5 7.125 C4.071875 6.22007812 3.14375 5.31515625 2.1875 4.3828125 C0 2 0 2 0 0 Z " fill="#1B1C1D" transform="translate(75,205)"/>
<path d="M0 0 C21.78 0 43.56 0 66 0 C63.85809492 5.3547627 62.74907807 6.21249765 58 9 C58 8.34 58 7.68 58 7 C57.34 6.67 56.68 6.34 56 6 C56.66 6 57.32 6 58 6 C58.33 4.68 58.66 3.36 59 2 C29.795 1.505 29.795 1.505 0 1 C0 0.67 0 0.34 0 0 Z " fill="#19191B" transform="translate(358,205)"/>
<path d="M0 0 C3.3 0 6.6 0 10 0 C8.11656068 3.76687864 7.30867531 4.79421646 4 7 C3.566875 6.0409375 3.566875 6.0409375 3.125 5.0625 C2.17176549 2.84793921 2.17176549 2.84793921 0 2 C0 1.34 0 0.68 0 0 Z " fill="#161618" transform="translate(345,152)"/>
<path d="M0 0 C2.125 0.375 2.125 0.375 4 1 C3.278125 1.556875 2.55625 2.11375 1.8125 2.6875 C-1.03742394 4.95448439 -1.03742394 4.95448439 -3.5625 7.5625 C-5.61694931 9.61694931 -7.63116166 11.33303969 -10 13 C-10 9 -10 9 -8.75 7.25 C-7 6 -7 6 -3 6 C-2.87625 5.38125 -2.7525 4.7625 -2.625 4.125 C-2 2 -2 2 0 0 Z " fill="#1C1D20" transform="translate(400,227)"/>
<path d="M0 0 C1.32 0 2.64 0 4 0 C3.65120368 3.25543229 2.97866739 4.01873107 0.4375 6.25 C-0.366875 6.8275 -1.17125 7.405 -2 8 C-2.99 7.01 -3.98 6.02 -5 5 C-4.01 4.67 -3.02 4.34 -2 4 C-0.79117904 1.99983534 -0.79117904 1.99983534 0 0 Z " fill="#222426" transform="translate(407,217)"/>
<path d="M0 0 C0.66 0.66 1.32 1.32 2 2 C-2.74144487 8.04942966 -2.74144487 8.04942966 -5 10 C-5.66 10 -6.32 10 -7 10 C-6.67 7.69 -6.34 5.38 -6 3 C-5.01 3.33 -4.02 3.66 -3 4 C-3 3.34 -3 2.68 -3 2 C-2.01 1.34 -1.02 0.68 0 0 Z " fill="#272829" transform="translate(361,266)"/>
<path d="M0 0 C1.98 0 3.96 0 6 0 C6 0.66 6 1.32 6 2 C6.99 1.67 7.98 1.34 9 1 C9.33 1.99 9.66 2.98 10 4 C8.5625 6.1875 8.5625 6.1875 7 8 C5.83035398 6.8572081 4.66435444 5.71068285 3.5 4.5625 C2.8503125 3.92441406 2.200625 3.28632813 1.53125 2.62890625 C0 1 0 1 0 0 Z " fill="#434345" transform="translate(78,209)"/>
<path d="M0 0 C0.99 0.33 1.98 0.66 3 1 C2.67 1.66 2.34 2.32 2 3 C2.66 3.33 3.32 3.66 4 4 C2.02 5.32 0.04 6.64 -2 8 C-2 7.34 -2 6.68 -2 6 C-2.66 5.67 -3.32 5.34 -4 5 C-3.34 5 -2.68 5 -2 5 C-1.7834375 4.0409375 -1.7834375 4.0409375 -1.5625 3.0625 C-1 1 -1 1 0 0 Z " fill="#212122" transform="translate(418,206)"/>
<path d="M0 0 C0.33 0.66 0.66 1.32 1 2 C-0.375 4 -0.375 4 -2 6 C-2.66 6 -3.32 6 -4 6 C-4.66 7.32 -5.32 8.64 -6 10 C-6.99 9.67 -7.98 9.34 -9 9 C-8.34 9 -7.68 9 -7 9 C-6.6596875 8.1646875 -6.6596875 8.1646875 -6.3125 7.3125 C-4.64103234 4.36753316 -2.44723648 2.31843456 0 0 Z " fill="#4C4D4E" transform="translate(324,239)"/>
<path d="M0 0 C1.85776765 3.13498292 2.20140476 5.37471432 2 9 C1.34 8.67 0.68 8.34 0 8 C0 7.34 0 6.68 0 6 C-1.32 5.34 -2.64 4.68 -4 4 C-2.68 2.68 -1.36 1.36 0 0 Z " fill="#3E3E44" transform="translate(102,226)"/>
<path d="M0 0 C1.875 0.3125 1.875 0.3125 4 1 C4.66 1.99 5.32 2.98 6 4 C4.35 4.33 2.7 4.66 1 5 C0.67 3.35 0.34 1.7 0 0 Z " fill="#141517" transform="translate(216,279)"/>
<path d="M0 0 C1.65 0.33 3.3 0.66 5 1 C3.35 2.98 1.7 4.96 0 7 C-0.93423645 3.98968256 -1.04449911 3.13349732 0 0 Z " fill="#292A2B" transform="translate(344,158)"/>
<path d="M0 0 C0.99 0.33 1.98 0.66 3 1 C0.73572111 4.39641834 -1.58075094 5.84438646 -5 8 C-4.67 6.68 -4.34 5.36 -4 4 C-3.34 4 -2.68 4 -2 4 C-2 3.34 -2 2.68 -2 2 C-1.34 2 -0.68 2 0 2 C0 1.34 0 0.68 0 0 Z " fill="#4F5052" transform="translate(190,242)"/>
<path d="M0 0 C1.875 0.3125 1.875 0.3125 4 1 C4.66 1.99 5.32 2.98 6 4 C3.69 4 1.38 4 -1 4 C-0.67 2.68 -0.34 1.36 0 0 Z " fill="#292A2B" transform="translate(123,297)"/>
<path d="M0 0 C1.98 1.65 3.96 3.3 6 5 C3 6 3 6 0.8125 5.0625 C0.214375 4.711875 -0.38375 4.36125 -1 4 C-0.67 2.68 -0.34 1.36 0 0 Z " fill="#2A2B2C" transform="translate(289,222)"/>
<path d="M0 0 C1.65 0 3.3 0 5 0 C6.125 3.75 6.125 3.75 5 6 C4.67 5.01 4.34 4.02 4 3 C2.35 2.67 0.7 2.34 -1 2 C-0.67 1.34 -0.34 0.68 0 0 Z " fill="#3A3B3C" transform="translate(313,309)"/>
<path d="M0 0 C2.125 0.375 2.125 0.375 4 1 C2.824375 1.928125 2.824375 1.928125 1.625 2.875 C-0.96837647 4.89858661 -0.96837647 4.89858661 -3 7 C-2.25 2.25 -2.25 2.25 0 0 Z " fill="#575758" transform="translate(400,227)"/>
<path d="M0 0 C1.65 1.65 3.3 3.3 5 5 C3.68 5 2.36 5 1 5 C0.34 4.01 -0.32 3.02 -1 2 C-0.67 1.34 -0.34 0.68 0 0 Z " fill="#414142" transform="translate(154,160)"/>
<path d="M0 0 C0.99 0.33 1.98 0.66 3 1 C1.35 2.98 -0.3 4.96 -2 7 C-2.6875 5.1875 -2.6875 5.1875 -3 3 C-1.5625 1.25 -1.5625 1.25 0 0 Z " fill="#444545" transform="translate(372,255)"/>
<path d="M0 0 C1.32 0 2.64 0 4 0 C3.67 1.32 3.34 2.64 3 4 C1.68 3.67 0.36 3.34 -1 3 C-0.67 2.01 -0.34 1.02 0 0 Z " fill="#161719" transform="translate(407,217)"/>
</svg>
